<svg width="360" height="384" viewBox="0 0 360 384" fill="none" xmlns="http://www.w3.org/2000/svg">
<path opacity="0.7" d="M48.9096 128.325C48.9096 128.325 28.836 183.621 57.0456 239.301C85.2552 294.981 143.359 324.395 189.864 349.547C236.369 374.699 284.659 362.449 307.606 321.254C330.552 280.058 299.081 250.652 299.038 191.907C298.994 133.163 307.282 117.611 277.438 67.9829C247.594 18.3547 174.434 7.36465 119.11 44.1749C63.7848 80.9851 48.9096 128.325 48.9096 128.325Z" fill="white"/>
<path d="M225.799 335.485C282.643 335.485 338.875 285.181 335.405 224.663C332.863 180.48 322.107 134.277 299.088 99.0719C245.52 17.134 189.043 27.8783 173.578 93.3964C158.112 158.915 76.8169 110.738 35.9137 180.948C31.7601 188.198 28.6077 196.048 26.5537 204.257C9.41053 270.797 62.4817 334.694 127.167 334.694L225.799 335.485Z" fill="#0093A5"/>
<path opacity="0.7" d="M225.799 335.485C282.643 335.485 338.875 285.181 335.405 224.663C332.863 180.48 322.107 134.277 299.088 99.0719C245.52 17.134 189.043 27.8783 173.578 93.3964C158.112 158.915 76.8169 110.738 35.9137 180.948C31.7601 188.198 28.6077 196.048 26.5537 204.257C9.41053 270.797 62.4817 334.694 127.167 334.694L225.799 335.485Z" fill="white"/>
<path d="M31.4644 286.848H336.946" stroke="#263238" stroke-linecap="round" stroke-linejoin="round"/>
<path d="M271.67 296.848C268.848 296.932 266.018 297.078 263.21 297.332" stroke="#263238" stroke-linecap="round" stroke-linejoin="round"/>
<path d="M316.491 296.002C313.249 296.367 309.973 296.131 306.807 295.303C303.783 294.604 299.643 296.194 296.439 296.601C289.331 297.529 282.147 297.593 275.026 296.793" stroke="#263238" stroke-linecap="round" stroke-linejoin="round"/>
<path d="M327.132 296.356C324.699 296.356 322.438 295.434 319.882 295.642" stroke="#263238" stroke-linecap="round" stroke-linejoin="round"/>
<path d="M290.952 304.474C293.003 304.625 295.044 304.905 297.065 305.311" stroke="#263238" stroke-linecap="round" stroke-linejoin="round"/>
<path d="M234.216 303.997C243.209 303.229 251.936 303.79 260.856 304.627C269.626 305.441 278.403 304.143 287.18 304.304" stroke="#263238" stroke-linecap="round" stroke-linejoin="round"/>
<path d="M209.981 302.262C216.9 302.07 223.351 303.153 230.191 303.798" stroke="#263238" stroke-linecap="round" stroke-linejoin="round"/>
<path d="M133.114 298.921H130.63" stroke="#263238" stroke-linecap="round" stroke-linejoin="round"/>
<path d="M172.548 298.836C160.553 298.767 148.565 298.752 136.548 298.883" stroke="#263238" stroke-linecap="round" stroke-linejoin="round"/>
<path d="M199.707 297.331C191.715 296.824 183.809 298.045 175.86 298.683" stroke="#263238" stroke-linecap="round" stroke-linejoin="round"/>
<path d="M105.84 299.358H116.496" stroke="#263238" stroke-linecap="round" stroke-linejoin="round"/>
<path d="M31.2842 298.176C36.0002 296.448 41.0402 296.448 46.0802 297.216C49.6802 297.984 53.2802 300.288 57.6002 299.52C62.6402 297.984 67.6802 297.216 72.7202 299.52C82.8002 297.984 92.8802 300.288 102.665 299.367" stroke="#263238" stroke-linecap="round" stroke-linejoin="round"/>
<path d="M158.091 306.646C160.863 306.731 163.642 306.739 166.421 306.646" stroke="#263238" stroke-linecap="round" stroke-linejoin="round"/>
<path d="M94.1475 304.995C105.84 304.128 116.64 305.664 128.16 304.896C136.8 304.896 145.44 305.664 153.735 306.432" stroke="#263238" stroke-linecap="round" stroke-linejoin="round"/>
<path d="M188.935 290.304H186.451" stroke="#263238" stroke-linecap="round" stroke-linejoin="round"/>
<path d="M228.37 290.235C216.374 290.166 204.386 290.15 192.37 290.281" stroke="#263238" stroke-linecap="round" stroke-linejoin="round"/>
<path d="M255.528 288.768C247.536 288.261 239.63 289.482 231.682 290.119" stroke="#263238" stroke-linecap="round" stroke-linejoin="round"/>
<path d="M161.647 290.765H172.303" stroke="#263238" stroke-linecap="round" stroke-linejoin="round"/>
<path d="M213.905 298.045C216.684 298.129 219.463 298.137 222.242 298.045" stroke="#263238" stroke-linecap="round" stroke-linejoin="round"/>
<path d="M175.911 316.239L179.763 316.593" stroke="#263238" stroke-linecap="round" stroke-linejoin="round"/>
<path d="M153.943 315.863C160.128 316.032 166.32 316.109 172.505 315.94" stroke="#263238" stroke-linecap="round" stroke-linejoin="round"/>
<path d="M129.867 315.156C136.555 315.264 143.244 315.533 149.926 315.74" stroke="#263238" stroke-linecap="round" stroke-linejoin="round"/>
<path d="M120.168 315.148C122.088 315.119 124.025 315.119 125.978 315.148" stroke="#263238" stroke-linecap="round" stroke-linejoin="round"/>
<path d="M82.8003 304.742L91.2747 304.934" stroke="#263238" stroke-linecap="round" stroke-linejoin="round"/>
<path d="M123.264 293.506C126.389 293.706 129.19 293.099 131.854 293.506C134.518 293.913 137.967 292.984 138.903 293.545" stroke="#263238" stroke-linecap="round" stroke-linejoin="round"/>
<path d="M210.384 308.828C220.32 309.504 231.12 309.504 241.2 309.765" stroke="#263238" stroke-linecap="round" stroke-linejoin="round"/>
<path d="M198.346 309.765C201.283 309.558 204.214 309.289 207.144 309.059" stroke="#263238" stroke-linecap="round" stroke-linejoin="round"/>
<path d="M216.533 321.976C206.597 321.308 195.797 321.308 185.724 321.047" stroke="#263238" stroke-linecap="round" stroke-linejoin="round"/>
<path d="M228.571 321.023C225.634 321.231 222.703 321.5 219.766 321.73" stroke="#263238" stroke-linecap="round" stroke-linejoin="round"/>
<path d="M345.046 302.277C345.046 302.277 333.936 302.884 331.366 306.417C328.795 309.949 320.825 310.257 306.886 312.898C292.947 315.54 297.202 318.689 283.385 321.723C269.568 324.756 241.661 324.91 236.808 326.707C231.955 328.504 204.912 329.318 181.951 329.318C158.991 329.318 106.078 329.318 102.895 324.91C99.713 320.502 93.2618 322.936 84.4778 320.509C75.6938 318.082 50.537 318.689 47.3978 316.101C44.2586 313.513 44.8346 308.421 35.1578 308.759C29.7506 308.966 30.0314 302.615 26.3306 302.277C23.3903 302.111 20.4438 302.111 17.5034 302.277" stroke="#263238" stroke-linecap="round" stroke-linejoin="round"/>
<path d="M151.646 286.156C151.646 286.156 186.206 282.14 190.418 280.059C194.63 277.977 211.234 262.072 213.905 261.819C216.576 261.565 227.333 263.355 228.37 264.292C229.406 265.228 243.101 251.013 245.794 248.24C248.486 245.468 255.326 240.123 257.602 241.582C259.877 243.041 261.137 245.844 264.499 248.24C267.862 250.636 281.714 252.948 281.714 252.948C281.714 252.948 283.234 257.31 285.66 258.532C288.086 259.753 299.239 262.279 298.93 263.746C298.62 265.213 298.886 271.595 304.877 273.415C310.867 275.236 318.074 279.406 319.882 280.059C321.689 280.711 328.522 286.302 333.655 286.848" stroke="#263238" stroke-linecap="round" stroke-linejoin="round"/>
<path d="M199.707 271.764C199.707 271.764 189.548 266.097 185.688 264.292C181.829 262.487 175.306 272.54 172.304 271.764C169.301 270.989 161.612 269.284 159.048 271.803C156.485 274.322 147.089 281.226 145.944 280.059C144.8 278.891 113.818 277.494 110.801 277.125C107.784 276.756 100.491 283.807 97.8411 281.971C95.1915 280.136 76.6803 261.489 71.9211 262.886C67.1619 264.284 52.3515 274.629 50.6091 275.85C48.8667 277.071 46.1163 276.787 44.3019 277.125C42.4875 277.463 36.0003 282.916 34.2939 283.33" stroke="#263238" stroke-linecap="round" stroke-linejoin="round"/>
<path d="M204.257 141.005C204.257 141.005 202.018 132.71 186.919 132.664C171.821 132.618 162.972 147.202 162.972 147.202C162.972 147.202 156.643 140.851 148.997 145.09C141.351 149.33 141.365 151.734 141.365 151.734H78.5161" stroke="#263238" stroke-linecap="round" stroke-linejoin="round"/>
<path d="M252.389 217.62C252.389 217.62 254.628 209.318 269.727 209.279C284.825 209.241 293.674 223.818 293.674 223.818C293.674 223.818 300.003 217.466 307.649 221.706C315.296 225.945 315.281 228.349 315.281 228.349H334.937" stroke="#263238" stroke-linecap="round" stroke-linejoin="round"/>
<path d="M196.647 197.237H153.735C153.735 197.237 156.773 191.093 149.926 183.79C143.079 176.486 136.138 181.355 136.138 181.355C136.138 181.355 129.428 159.175 109.844 161.779C90.2595 164.382 88.2003 182.615 88.2003 182.615C88.2003 182.615 84.0171 178.137 75.4923 181.079C66.9675 184.02 65.6787 195.279 67.7883 200.018C67.7883 200.018 58.0827 201.838 57.4347 209.833C57.4347 209.833 56.8371 202.759 47.7003 202.544C38.5635 202.329 36.2883 213.296 36.2883 213.296H26.0283" stroke="#263238" stroke-linecap="round" stroke-linejoin="round"/>
<path d="M256.738 65.2339L254.83 68.9818C254.624 69.3871 254.319 69.7253 253.948 69.9606C253.576 70.1959 253.152 70.3195 252.72 70.3181H221.04C220.609 70.3181 220.186 70.1939 219.816 69.9587C219.446 69.7234 219.143 69.3859 218.938 68.9818L217.03 65.2339C216.822 64.8323 216.518 64.4972 216.148 64.2635C215.779 64.0298 215.357 63.9061 214.927 63.9053H185.594C184.96 63.9053 184.351 64.1737 183.902 64.6516C183.452 65.1296 183.199 65.7781 183.197 66.455V268.485C183.197 269.163 183.449 269.814 183.899 270.293C184.349 270.773 184.958 271.043 185.594 271.043H288.166C288.801 271.043 289.411 270.773 289.861 270.293C290.311 269.814 290.563 269.163 290.563 268.485V66.455C290.561 65.7781 290.308 65.1296 289.858 64.6516C289.409 64.1737 288.8 63.9053 288.166 63.9053H258.84C258.41 63.9061 257.989 64.0298 257.619 64.2635C257.249 64.4972 256.945 64.8323 256.738 65.2339Z" fill="#BFBFBF" stroke="#263238" stroke-linecap="round" stroke-linejoin="round"/>
<path d="M287.388 83.8652H186.372V203.543H287.388V83.8652Z" fill="#0093A5"/>
<mask id="mask0_262_2815" style="mask-type:luminance" maskUnits="userSpaceOnUse" x="186" y="83" width="102" height="121">
<path d="M287.388 83.8652H186.372V203.543H287.388V83.8652Z" fill="white"/>
</mask>
<g mask="url(#mask0_262_2815)">
<path opacity="0.7" d="M287.388 83.8652H186.372V203.543H287.388V83.8652Z" fill="white"/>
</g>
<path d="M287.388 83.8652H186.372V203.543H287.388V83.8652Z" stroke="#263238" stroke-linecap="round" stroke-linejoin="round"/>
<path d="M287.388 94.8789C286.106 96.3074 285.062 97.8664 283.954 97.6744C281.65 97.2751 280.001 98.4424 278.683 97.6744C277.366 96.9064 277.034 100.746 277.034 100.746L274.723 102.858L272.75 103.626C272.75 103.626 271.757 105.539 272.75 106.522C273.744 107.505 274.838 109.248 272.311 109.248H268.135C268.135 109.248 266.818 106.591 265.169 106.522C263.52 106.453 262.865 102.866 262.865 102.866V99.8402L256.932 102.866C256.932 102.866 253.332 103.757 253.332 105.109V109.824L251.69 113.226L257.285 114.194L259.265 110.792C259.265 110.792 261.569 109.932 261.9 111.56C262.141 113.839 262.252 116.132 262.231 118.426C261.404 119.776 260.739 121.231 260.251 122.757C262.562 125.1 261.9 125.63 263.225 126.067C264.55 126.505 265.198 128.517 265.198 129.623V130.729C265.198 130.729 258.934 131.251 263.225 134.331C264.521 135.268 265.032 135.652 265.176 135.783C264.326 135.283 265.176 135.836 265.219 135.836C265.222 135.821 265.222 135.805 265.219 135.79L265.558 135.998C266.261 136.366 266.923 136.82 267.53 137.349C267.53 137.288 267.84 137.234 269.179 137.449C271.159 137.756 272.477 132.841 274.781 135.998C277.085 139.154 278.381 141.097 279.396 142.065L280.39 143.033L286.978 145.121L287.446 145.16L287.388 94.8789Z" fill="#0093A5" stroke="#263238" stroke-linecap="round" stroke-linejoin="round"/>
<path d="M273.6 165.212C271.951 161.695 273.6 165.212 272.614 165.819C271.627 166.426 269.978 166.971 267.998 165.297C267.998 165.297 268.985 163.807 267.998 161.126C267.012 158.446 265.694 160.988 264.038 161.126C262.896 161.209 261.754 160.943 260.748 160.358C260.086 160.028 259.754 158.93 257.782 158.285C255.809 157.64 256.464 158.223 253.462 162.647H251.813C251.813 162.647 251.158 164.905 250.164 165.343C249.17 165.78 246.866 164.905 246.211 163.254C245.556 161.603 249.811 161.034 253.13 159.967C256.45 158.899 251.482 155.359 251.482 155.359L251.158 152.287L249.84 150.797C248.522 149.391 245.887 150.098 244.901 146.903C243.914 143.708 245.887 145.521 244.238 143.593C243.356 142.509 242.313 141.588 241.15 140.867C241.15 140.867 233.035 143.063 230.4 140.867C227.765 138.67 227.434 141.581 227.434 141.581L224.467 145.805V150.797H217.872L215.561 147.456C215.561 147.456 212.602 141.312 214.574 140.867C216.547 140.421 217.21 140.867 217.21 140.867L219.514 138.14L219.571 138.209C219.622 138.286 222.451 138.493 222.811 137.556C223.171 136.619 221.825 133.225 221.825 133.225L217.872 130.053L215.561 129.024C214.552 128.601 213.564 128.121 212.602 127.588L211.284 126.351C209.959 125.107 208.973 127.941 207.979 128.049C206.986 128.156 203.695 124.777 202.709 122.673C201.722 120.568 206.309 122.342 207.648 121.359C208.987 120.376 209.959 118.825 209.959 113.948C209.959 109.071 208.31 113.549 206.993 114.24C205.675 114.931 203.695 114.954 201.06 113.948C198.425 112.942 200.405 112.497 198.756 112.543C197.107 112.589 189.857 113.948 189.857 113.948C189.857 113.948 188.1 116.306 186.372 118.595V203.52H195.12C195.12 203.405 195.12 203.627 195.12 203.52C195.12 201.462 198.418 201.393 199.44 199.811C200.462 198.228 202.399 195.548 202.399 195.548V193.69L203.062 191.002C203.717 188.321 205.697 191.923 208.001 192.046C210.305 192.169 212.321 191.923 212.623 190.164C212.926 188.406 212.623 190.164 212.623 186.324C212.623 182.484 212.623 184.858 214.927 184.788L219.211 186.324C221.045 186.99 222.916 187.534 224.813 187.953C227.779 188.59 226.13 190.963 226.13 190.963L230.414 192.438H236.671L238.982 195.164L241.142 195.533H245.225L246.866 192.461C247.671 191.832 248.559 191.335 249.502 190.986C250.495 190.763 253.462 191.555 253.462 191.555L255.571 191.485C257.681 191.416 257.414 188.145 257.414 188.145L258.732 186.347L259.394 184.811L262.354 180.672L264.391 178.491C266.429 176.31 265.327 175.419 265.327 175.419L264.391 173C263.462 170.588 266.314 172.731 266.314 172.731C268.222 173.35 270.093 174.094 271.915 174.958C275.515 176.609 274.882 173.66 275.213 172.731C275.544 171.802 275.213 168.722 273.6 165.212Z" fill="#0093A5"/>
<path d="M195.12 203.52H186.372V118.595C188.1 116.306 189.857 113.948 189.857 113.948C189.857 113.948 197.107 112.589 198.756 112.543C200.405 112.497 198.425 112.942 201.06 113.948C203.695 114.954 205.675 114.931 206.993 114.24C208.31 113.549 209.959 109.071 209.959 113.948C209.959 118.825 208.987 120.376 207.648 121.359C206.309 122.342 201.722 120.568 202.709 122.673C203.695 124.777 206.986 128.156 207.979 128.049C208.973 127.941 209.959 125.107 211.284 126.351L212.602 127.588C213.564 128.121 214.552 128.601 215.561 129.024L217.872 130.053L221.825 133.225C221.825 133.225 223.171 136.619 222.811 137.556C222.451 138.493 219.622 138.286 219.571 138.209L219.514 138.14L217.21 140.867C217.21 140.867 216.547 140.421 214.574 140.867C212.602 141.312 215.561 147.456 215.561 147.456L217.872 150.797H224.467V145.805L227.434 141.581C227.434 141.581 227.765 138.67 230.4 140.867C233.035 143.063 241.15 140.867 241.15 140.867C242.313 141.588 243.356 142.509 244.238 143.593C245.887 145.521 243.914 143.708 244.901 146.903C245.887 150.098 248.522 149.391 249.84 150.797L251.158 152.287L251.482 155.359C251.482 155.359 256.45 158.899 253.13 159.967C249.811 161.034 245.556 161.603 246.211 163.254C246.866 164.905 249.17 165.78 250.164 165.343C251.158 164.905 251.813 162.647 251.813 162.647H253.462C256.464 158.223 255.809 157.64 257.782 158.285C259.754 158.93 260.086 160.028 260.748 160.358C261.754 160.943 262.896 161.209 264.038 161.126C265.694 160.988 267.012 158.446 267.998 161.126C268.985 163.807 267.998 165.297 267.998 165.297C269.978 166.971 271.627 166.426 272.614 165.819C273.6 165.212 271.951 161.695 273.6 165.212C275.213 168.722 275.544 171.802 275.213 172.731C274.882 173.66 275.515 176.609 271.915 174.958C270.093 174.094 268.222 173.35 266.314 172.731C266.314 172.731 263.462 170.588 264.391 173L265.327 175.419C265.327 175.419 266.429 176.31 264.391 178.491L262.354 180.672L259.394 184.811L258.732 186.347L257.414 188.145C257.414 188.145 257.681 191.416 255.571 191.485L253.462 191.555C253.462 191.555 250.495 190.763 249.502 190.986C248.559 191.335 247.671 191.832 246.866 192.461L245.225 195.533H241.142L238.982 195.164L236.671 192.438H230.414L226.13 190.963C226.13 190.963 227.779 188.59 224.813 187.953C222.916 187.534 221.045 186.99 219.211 186.324L214.927 184.788C212.623 184.858 212.623 182.484 212.623 186.324C212.623 190.164 212.926 188.406 212.623 190.164C212.321 191.923 210.305 192.169 208.001 192.046C205.697 191.923 203.717 188.321 203.062 191.002L202.399 193.69V195.548C202.399 195.548 200.462 198.228 199.44 199.811C198.418 201.393 195.12 201.462 195.12 203.52ZM195.12 203.52C195.12 203.405 195.12 203.627 195.12 203.52Z" stroke="#263238" stroke-linecap="round" stroke-linejoin="round"/>
<path d="M219.6 118.81C216.238 113.672 224.82 114.04 225.806 114.663C226.793 115.285 230.09 114.663 230.09 114.663V112.527C230.09 112.527 232.402 112.574 233.388 112.527C234.374 112.481 236.023 110.492 236.354 112.719C236.525 114.373 236.525 116.042 236.354 117.696C236.354 118.81 235.634 120.369 236.498 121.344C237.362 122.319 233.388 123.471 233.388 124.654C233.388 125.837 234.706 131.681 232.07 128.056C229.435 124.431 230.076 123.226 228.11 122.25L226.08 121.267C226.08 121.267 223.243 124.416 219.6 118.81Z" fill="#0093A5" stroke="#263238" stroke-linecap="round" stroke-linejoin="round"/>
<path d="M203.371 93.1435L202.709 91.7381H200.513C200.513 91.7381 197.107 87.5218 196.121 86.7614C195.3 86.1394 198.101 85.8629 201.334 83.8584H186.372V105.216C186.578 105.535 186.876 105.773 187.222 105.892C188.539 106.292 191.837 105.846 193.81 105.293C195.782 104.74 193.81 103.757 193.81 100.923C193.81 98.0894 195.97 101.023 195.97 101.023L198.094 99.8712C199.019 99.0275 199.703 97.9229 200.066 96.684C200.729 94.5643 201.506 96.684 201.506 96.684L204.386 97.644C204.386 97.644 206.986 97.7592 206.986 96.684C206.986 95.6088 203.371 93.1435 203.371 93.1435Z" fill="#0093A5" stroke="#263238" stroke-linecap="round" stroke-linejoin="round"/>
<path d="M287.388 186.624C287.114 187.561 287.042 189.074 286.085 189.696C284.436 190.748 286.085 189.696 284.436 189.627C282.787 189.558 281.801 191.455 282.629 194.181L280.116 194.588V192.845L275.868 191.8L275.328 191.923C274.781 192.054 273.564 195.318 273.233 197.484C271.04 197.658 268.838 197.658 266.645 197.484C263.347 197.192 266.645 199.288 266.645 199.288L271.915 200.241L273.895 199.288C275.868 198.336 277.495 202.13 277.495 202.13C277.495 202.13 279.144 198.482 280.13 197.353C281.117 196.224 283.428 197.783 286.063 197.484L287.366 196.716L287.388 186.624Z" fill="#0093A5" stroke="#263238" stroke-linecap="round" stroke-linejoin="round"/>
<path d="M219.6 144.131C219.12 143.618 218.55 143.212 217.922 142.934C217.295 142.657 216.622 142.514 215.942 142.514C215.263 142.514 214.59 142.657 213.963 142.934C213.335 143.212 212.765 143.618 212.285 144.131C211.804 144.643 211.423 145.251 211.163 145.921C210.902 146.59 210.769 147.308 210.769 148.032C210.769 148.757 210.902 149.475 211.163 150.144C211.423 150.814 211.804 151.422 212.285 151.934L215.942 155.828L219.6 151.934C220.569 150.899 221.113 149.495 221.113 148.032C221.113 146.57 220.569 145.166 219.6 144.131Z" fill="#757575" stroke="#263238" stroke-linecap="round" stroke-linejoin="round"/>
<path d="M218.203 150.436C217.757 150.911 217.188 151.235 216.57 151.365C215.951 151.496 215.31 151.429 214.728 151.171C214.145 150.913 213.647 150.477 213.297 149.918C212.947 149.358 212.76 148.701 212.76 148.028C212.76 147.356 212.947 146.698 213.297 146.139C213.647 145.579 214.145 145.143 214.728 144.885C215.31 144.628 215.951 144.56 216.57 144.691C217.188 144.822 217.757 145.145 218.203 145.621C218.501 145.936 218.737 146.311 218.898 146.724C219.059 147.138 219.142 147.581 219.142 148.028C219.142 148.476 219.059 148.919 218.898 149.332C218.737 149.745 218.501 150.12 218.203 150.436Z" fill="#0093A5"/>
<mask id="mask1_262_2815" style="mask-type:luminance" maskUnits="userSpaceOnUse" x="212" y="144" width="8" height="8">
<path d="M218.203 150.436C217.757 150.911 217.188 151.235 216.57 151.365C215.951 151.496 215.31 151.429 214.728 151.171C214.145 150.913 213.647 150.477 213.297 149.918C212.947 149.358 212.76 148.701 212.76 148.028C212.76 147.356 212.947 146.698 213.297 146.139C213.647 145.579 214.145 145.143 214.728 144.885C215.31 144.628 215.951 144.56 216.57 144.691C217.188 144.822 217.757 145.145 218.203 145.621C218.501 145.936 218.737 146.311 218.898 146.724C219.059 147.138 219.142 147.581 219.142 148.028C219.142 148.476 219.059 148.919 218.898 149.332C218.737 149.745 218.501 150.12 218.203 150.436Z" fill="white"/>
</mask>
<g mask="url(#mask1_262_2815)">
<path opacity="0.6" d="M218.203 150.436C217.757 150.911 217.188 151.235 216.57 151.365C215.951 151.496 215.31 151.429 214.728 151.171C214.145 150.913 213.647 150.477 213.297 149.918C212.947 149.358 212.76 148.701 212.76 148.028C212.76 147.356 212.947 146.698 213.297 146.139C213.647 145.579 214.145 145.143 214.728 144.885C215.31 144.628 215.951 144.56 216.57 144.691C217.188 144.822 217.757 145.145 218.203 145.621C218.501 145.936 218.737 146.311 218.898 146.724C219.059 147.138 219.142 147.581 219.142 148.028C219.142 148.476 219.059 148.919 218.898 149.332C218.737 149.745 218.501 150.12 218.203 150.436Z" fill="white"/>
</g>
<path d="M218.203 150.436C217.757 150.911 217.188 151.235 216.57 151.365C215.951 151.496 215.31 151.429 214.728 151.171C214.145 150.913 213.647 150.477 213.297 149.918C212.947 149.358 212.76 148.701 212.76 148.028C212.76 147.356 212.947 146.698 213.297 146.139C213.647 145.579 214.145 145.143 214.728 144.885C215.31 144.628 215.951 144.56 216.57 144.691C217.188 144.822 217.757 145.145 218.203 145.621C218.501 145.936 218.737 146.311 218.898 146.724C219.059 147.138 219.142 147.581 219.142 148.028C219.142 148.476 219.059 148.919 218.898 149.332C218.737 149.745 218.501 150.12 218.203 150.436Z" stroke="#263238" stroke-linecap="round" stroke-linejoin="round"/>
<path d="M214.502 148.032L215.626 149.168L217.274 146.757" stroke="#263238" stroke-linecap="round" stroke-linejoin="round"/>
<path d="M200.34 87.8361C199.86 87.3234 199.29 86.9166 198.662 86.6391C198.035 86.3616 197.362 86.2188 196.683 86.2188C196.003 86.2188 195.33 86.3616 194.703 86.6391C194.075 86.9166 193.505 87.3234 193.025 87.8361C192.056 88.8701 191.512 90.272 191.512 91.7337C191.512 93.1954 192.056 94.5973 193.025 95.6313L196.683 99.5328L200.34 95.6313C201.309 94.5973 201.853 93.1954 201.853 91.7337C201.853 90.272 201.309 88.8701 200.34 87.8361Z" fill="#757575" stroke="#263238" stroke-linecap="round" stroke-linejoin="round"/>
<path d="M198.943 94.1418C198.496 94.6197 197.927 94.9454 197.306 95.0778C196.686 95.2102 196.043 95.1432 195.458 94.8854C194.873 94.6276 194.374 94.1906 194.022 93.6296C193.67 93.0686 193.482 92.409 193.482 91.7341C193.482 91.0593 193.67 90.3996 194.022 89.8387C194.374 89.2777 194.873 88.8406 195.458 88.5828C196.043 88.325 196.686 88.2581 197.306 88.3905C197.927 88.5228 198.496 88.8486 198.943 89.3265C199.54 89.9657 199.876 90.8315 199.876 91.7341C199.876 92.6368 199.54 93.5026 198.943 94.1418Z" fill="#0093A5"/>
<mask id="mask2_262_2815" style="mask-type:luminance" maskUnits="userSpaceOnUse" x="193" y="88" width="7" height="8">
<path d="M198.943 94.1418C198.496 94.6197 197.927 94.9454 197.306 95.0778C196.686 95.2102 196.043 95.1432 195.458 94.8854C194.873 94.6276 194.374 94.1906 194.022 93.6296C193.67 93.0686 193.482 92.409 193.482 91.7341C193.482 91.0593 193.67 90.3996 194.022 89.8387C194.374 89.2777 194.873 88.8406 195.458 88.5828C196.043 88.325 196.686 88.2581 197.306 88.3905C197.927 88.5228 198.496 88.8486 198.943 89.3265C199.54 89.9657 199.876 90.8315 199.876 91.7341C199.876 92.6368 199.54 93.5026 198.943 94.1418Z" fill="white"/>
</mask>
<g mask="url(#mask2_262_2815)">
<path opacity="0.6" d="M198.943 94.1418C198.496 94.6197 197.927 94.9454 197.306 95.0778C196.686 95.2102 196.043 95.1432 195.458 94.8854C194.873 94.6276 194.374 94.1906 194.022 93.6296C193.67 93.0686 193.482 92.409 193.482 91.7341C193.482 91.0593 193.67 90.3996 194.022 89.8387C194.374 89.2777 194.873 88.8406 195.458 88.5828C196.043 88.325 196.686 88.2581 197.306 88.3905C197.927 88.5228 198.496 88.8486 198.943 89.3265C199.54 89.9657 199.876 90.8315 199.876 91.7341C199.876 92.6368 199.54 93.5026 198.943 94.1418Z" fill="white"/>
</g>
<path d="M198.943 94.1418C198.496 94.6197 197.927 94.9454 197.306 95.0778C196.686 95.2102 196.043 95.1432 195.458 94.8854C194.873 94.6276 194.374 94.1906 194.022 93.6296C193.67 93.0686 193.482 92.409 193.482 91.7341C193.482 91.0593 193.67 90.3996 194.022 89.8387C194.374 89.2777 194.873 88.8406 195.458 88.5828C196.043 88.325 196.686 88.2581 197.306 88.3905C197.927 88.5228 198.496 88.8486 198.943 89.3265C199.54 89.9657 199.876 90.8315 199.876 91.7341C199.876 92.6368 199.54 93.5026 198.943 94.1418Z" stroke="#263238" stroke-linecap="round" stroke-linejoin="round"/>
<path d="M195.235 91.7301L196.359 92.8744L198.007 90.4629" stroke="#263238" stroke-linecap="round" stroke-linejoin="round"/>
<path d="M235.512 108.342C234.542 107.309 233.228 106.729 231.858 106.729C230.487 106.729 229.173 107.309 228.204 108.342C227.723 108.854 227.342 109.462 227.082 110.132C226.821 110.801 226.688 111.519 226.688 112.243C226.688 112.968 226.821 113.686 227.082 114.355C227.342 115.025 227.723 115.633 228.204 116.145L231.861 120.046L235.512 116.145C235.992 115.633 236.374 115.025 236.634 114.355C236.894 113.686 237.028 112.968 237.028 112.243C237.028 111.519 236.894 110.801 236.634 110.132C236.374 109.462 235.992 108.854 235.512 108.342Z" fill="#757575" stroke="#263238" stroke-linecap="round" stroke-linejoin="round"/>
<path d="M234.115 114.654C233.668 115.131 233.098 115.456 232.478 115.587C231.858 115.719 231.215 115.651 230.631 115.393C230.047 115.135 229.548 114.698 229.197 114.137C228.846 113.577 228.658 112.917 228.658 112.243C228.658 111.569 228.846 110.909 229.197 110.349C229.548 109.788 230.047 109.351 230.631 109.093C231.215 108.835 231.858 108.767 232.478 108.898C233.098 109.03 233.668 109.355 234.115 109.831C234.713 110.472 235.049 111.339 235.049 112.243C235.049 113.147 234.713 114.014 234.115 114.654Z" fill="#0093A5"/>
<mask id="mask3_262_2815" style="mask-type:luminance" maskUnits="userSpaceOnUse" x="228" y="108" width="8" height="8">
<path d="M234.115 114.654C233.668 115.131 233.098 115.456 232.478 115.587C231.858 115.719 231.215 115.651 230.631 115.393C230.047 115.135 229.548 114.698 229.197 114.137C228.846 113.577 228.658 112.917 228.658 112.243C228.658 111.569 228.846 110.909 229.197 110.349C229.548 109.788 230.047 109.351 230.631 109.093C231.215 108.835 231.858 108.767 232.478 108.898C233.098 109.03 233.668 109.355 234.115 109.831C234.713 110.472 235.049 111.339 235.049 112.243C235.049 113.147 234.713 114.014 234.115 114.654Z" fill="white"/>
</mask>
<g mask="url(#mask3_262_2815)">
<path opacity="0.6" d="M234.115 114.654C233.668 115.131 233.098 115.456 232.478 115.587C231.858 115.719 231.215 115.651 230.631 115.393C230.047 115.135 229.548 114.698 229.197 114.137C228.846 113.577 228.658 112.917 228.658 112.243C228.658 111.569 228.846 110.909 229.197 110.349C229.548 109.788 230.047 109.351 230.631 109.093C231.215 108.835 231.858 108.767 232.478 108.898C233.098 109.03 233.668 109.355 234.115 109.831C234.713 110.472 235.049 111.339 235.049 112.243C235.049 113.147 234.713 114.014 234.115 114.654Z" fill="white"/>
</g>
<path d="M234.115 114.654C233.668 115.131 233.098 115.456 232.478 115.587C231.858 115.719 231.215 115.651 230.631 115.393C230.047 115.135 229.548 114.698 229.197 114.137C228.846 113.577 228.658 112.917 228.658 112.243C228.658 111.569 228.846 110.909 229.197 110.349C229.548 109.788 230.047 109.351 230.631 109.093C231.215 108.835 231.858 108.767 232.478 108.898C233.098 109.03 233.668 109.355 234.115 109.831C234.713 110.472 235.049 111.339 235.049 112.243C235.049 113.147 234.713 114.014 234.115 114.654Z" stroke="#263238" stroke-linecap="round" stroke-linejoin="round"/>
<path d="M230.407 112.244L231.53 113.388L233.186 110.969" stroke="#263238" stroke-linecap="round" stroke-linejoin="round"/>
<path d="M254.059 175.757C253.579 175.244 253.009 174.838 252.381 174.56C251.754 174.282 251.081 174.14 250.401 174.14C249.722 174.14 249.049 174.282 248.422 174.56C247.794 174.838 247.224 175.244 246.744 175.757C246.263 176.269 245.882 176.877 245.622 177.547C245.361 178.216 245.228 178.934 245.228 179.658C245.228 180.383 245.361 181.101 245.622 181.77C245.882 182.44 246.263 183.048 246.744 183.56L250.401 187.461L254.059 183.56C255.028 182.525 255.572 181.121 255.572 179.658C255.572 178.195 255.028 176.792 254.059 175.757Z" fill="#757575" stroke="#263238" stroke-linecap="round" stroke-linejoin="round"/>
<path d="M252.655 182.069C252.208 182.546 251.638 182.871 251.018 183.002C250.398 183.134 249.756 183.066 249.171 182.808C248.587 182.55 248.088 182.113 247.737 181.552C247.386 180.992 247.198 180.332 247.198 179.658C247.198 178.984 247.386 178.324 247.737 177.764C248.088 177.203 248.587 176.766 249.171 176.508C249.756 176.25 250.398 176.182 251.018 176.313C251.638 176.445 252.208 176.77 252.655 177.246C252.953 177.563 253.189 177.938 253.351 178.352C253.512 178.766 253.595 179.21 253.595 179.658C253.595 180.106 253.512 180.55 253.351 180.964C253.189 181.378 252.953 181.753 252.655 182.069Z" fill="#0093A5"/>
<mask id="mask4_262_2815" style="mask-type:luminance" maskUnits="userSpaceOnUse" x="247" y="176" width="7" height="8">
<path d="M252.655 182.069C252.208 182.546 251.638 182.871 251.018 183.002C250.398 183.134 249.756 183.066 249.171 182.808C248.587 182.55 248.088 182.113 247.737 181.552C247.386 180.992 247.198 180.332 247.198 179.658C247.198 178.984 247.386 178.324 247.737 177.764C248.088 177.203 248.587 176.766 249.171 176.508C249.756 176.25 250.398 176.182 251.018 176.313C251.638 176.445 252.208 176.77 252.655 177.246C252.953 177.563 253.189 177.938 253.351 178.352C253.512 178.766 253.595 179.21 253.595 179.658C253.595 180.106 253.512 180.55 253.351 180.964C253.189 181.378 252.953 181.753 252.655 182.069Z" fill="white"/>
</mask>
<g mask="url(#mask4_262_2815)">
<path opacity="0.6" d="M252.655 182.069C252.208 182.546 251.638 182.871 251.018 183.002C250.398 183.134 249.756 183.066 249.171 182.808C248.587 182.55 248.088 182.113 247.737 181.552C247.386 180.992 247.198 180.332 247.198 179.658C247.198 178.984 247.386 178.324 247.737 177.764C248.088 177.203 248.587 176.766 249.171 176.508C249.756 176.25 250.398 176.182 251.018 176.313C251.638 176.445 252.208 176.77 252.655 177.246C252.953 177.563 253.189 177.938 253.351 178.352C253.512 178.766 253.595 179.21 253.595 179.658C253.595 180.106 253.512 180.55 253.351 180.964C253.189 181.378 252.953 181.753 252.655 182.069Z" fill="white"/>
</g>
<path d="M252.655 182.069C252.208 182.546 251.638 182.871 251.018 183.002C250.398 183.134 249.756 183.066 249.171 182.808C248.587 182.55 248.088 182.113 247.737 181.552C247.386 180.992 247.198 180.332 247.198 179.658C247.198 178.984 247.386 178.324 247.737 177.764C248.088 177.203 248.587 176.766 249.171 176.508C249.756 176.25 250.398 176.182 251.018 176.313C251.638 176.445 252.208 176.77 252.655 177.246C252.953 177.563 253.189 177.938 253.351 178.352C253.512 178.766 253.595 179.21 253.595 179.658C253.595 180.106 253.512 180.55 253.351 180.964C253.189 181.378 252.953 181.753 252.655 182.069Z" stroke="#263238" stroke-linecap="round" stroke-linejoin="round"/>
<path d="M248.955 179.659L250.078 180.803L251.727 178.384" stroke="#263238" stroke-linecap="round" stroke-linejoin="round"/>
<path d="M271.238 110.5C270.268 109.466 268.952 108.886 267.581 108.886C266.209 108.886 264.894 109.466 263.923 110.5C262.954 111.535 262.41 112.938 262.41 114.401C262.41 115.864 262.954 117.267 263.923 118.303L267.581 122.204L271.238 118.303C271.719 117.791 272.1 117.183 272.36 116.513C272.621 115.844 272.754 115.126 272.754 114.401C272.754 113.677 272.621 112.959 272.36 112.29C272.1 111.62 271.719 111.012 271.238 110.5Z" fill="#757575" stroke="#263238" stroke-linecap="round" stroke-linejoin="round"/>
<path d="M269.842 116.813C269.395 117.289 268.825 117.614 268.205 117.746C267.585 117.877 266.942 117.81 266.358 117.551C265.774 117.293 265.275 116.856 264.923 116.295C264.572 115.735 264.385 115.076 264.385 114.401C264.385 113.727 264.572 113.068 264.923 112.507C265.275 111.946 265.774 111.509 266.358 111.251C266.942 110.993 267.585 110.925 268.205 111.057C268.825 111.188 269.395 111.513 269.842 111.99C270.44 112.63 270.775 113.497 270.775 114.401C270.775 115.305 270.44 116.172 269.842 116.813Z" fill="#0093A5"/>
<mask id="mask5_262_2815" style="mask-type:luminance" maskUnits="userSpaceOnUse" x="264" y="110" width="7" height="8">
<path d="M269.842 116.813C269.395 117.289 268.825 117.614 268.205 117.746C267.585 117.877 266.942 117.81 266.358 117.551C265.774 117.293 265.275 116.856 264.923 116.295C264.572 115.735 264.385 115.076 264.385 114.401C264.385 113.727 264.572 113.068 264.923 112.507C265.275 111.946 265.774 111.509 266.358 111.251C266.942 110.993 267.585 110.925 268.205 111.057C268.825 111.188 269.395 111.513 269.842 111.99C270.44 112.63 270.775 113.497 270.775 114.401C270.775 115.305 270.44 116.172 269.842 116.813Z" fill="white"/>
</mask>
<g mask="url(#mask5_262_2815)">
<path opacity="0.6" d="M269.842 116.813C269.395 117.289 268.825 117.614 268.205 117.746C267.585 117.877 266.942 117.81 266.358 117.551C265.774 117.293 265.275 116.856 264.923 116.295C264.572 115.735 264.385 115.076 264.385 114.401C264.385 113.727 264.572 113.068 264.923 112.507C265.275 111.946 265.774 111.509 266.358 111.251C266.942 110.993 267.585 110.925 268.205 111.057C268.825 111.188 269.395 111.513 269.842 111.99C270.44 112.63 270.775 113.497 270.775 114.401C270.775 115.305 270.44 116.172 269.842 116.813Z" fill="white"/>
</g>
<path d="M269.842 116.813C269.395 117.289 268.825 117.614 268.205 117.746C267.585 117.877 266.942 117.81 266.358 117.551C265.774 117.293 265.275 116.856 264.923 116.295C264.572 115.735 264.385 115.076 264.385 114.401C264.385 113.727 264.572 113.068 264.923 112.507C265.275 111.946 265.774 111.509 266.358 111.251C266.942 110.993 267.585 110.925 268.205 111.057C268.825 111.188 269.395 111.513 269.842 111.99C270.44 112.63 270.775 113.497 270.775 114.401C270.775 115.305 270.44 116.172 269.842 116.813Z" stroke="#263238" stroke-linecap="round" stroke-linejoin="round"/>
<path d="M266.134 114.401L267.257 115.545L268.913 113.126" stroke="#263238" stroke-linecap="round" stroke-linejoin="round"/>
<path d="M281.585 183.828C281.105 183.316 280.535 182.909 279.907 182.631C279.279 182.354 278.607 182.211 277.927 182.211C277.248 182.211 276.575 182.354 275.948 182.631C275.32 182.909 274.75 183.316 274.27 183.828C273.789 184.34 273.408 184.949 273.147 185.618C272.887 186.287 272.753 187.005 272.753 187.73C272.753 188.454 272.887 189.172 273.147 189.841C273.408 190.511 273.789 191.119 274.27 191.631L277.927 195.525L281.585 191.631C282.554 190.596 283.098 189.193 283.098 187.73C283.098 186.267 282.554 184.864 281.585 183.828Z" fill="#757575" stroke="#263238" stroke-linecap="round" stroke-linejoin="round"/>
<path d="M280.188 190.134C279.741 190.612 279.172 190.938 278.551 191.07C277.931 191.202 277.288 191.135 276.703 190.878C276.118 190.62 275.619 190.183 275.267 189.622C274.915 189.061 274.728 188.401 274.728 187.726C274.728 187.051 274.915 186.392 275.267 185.831C275.619 185.27 276.118 184.833 276.703 184.575C277.288 184.317 277.931 184.25 278.551 184.383C279.172 184.515 279.741 184.841 280.188 185.319C280.786 185.958 281.121 186.824 281.121 187.726C281.121 188.629 280.786 189.495 280.188 190.134Z" fill="#0093A5"/>
<mask id="mask6_262_2815" style="mask-type:luminance" maskUnits="userSpaceOnUse" x="274" y="184" width="8" height="8">
<path d="M280.188 190.134C279.741 190.612 279.172 190.938 278.551 191.07C277.931 191.202 277.288 191.135 276.703 190.878C276.118 190.62 275.619 190.183 275.267 189.622C274.915 189.061 274.728 188.401 274.728 187.726C274.728 187.051 274.915 186.392 275.267 185.831C275.619 185.27 276.118 184.833 276.703 184.575C277.288 184.317 277.931 184.25 278.551 184.383C279.172 184.515 279.741 184.841 280.188 185.319C280.786 185.958 281.121 186.824 281.121 187.726C281.121 188.629 280.786 189.495 280.188 190.134Z" fill="white"/>
</mask>
<g mask="url(#mask6_262_2815)">
<path opacity="0.6" d="M280.188 190.134C279.741 190.612 279.172 190.938 278.551 191.07C277.931 191.202 277.288 191.135 276.703 190.878C276.118 190.62 275.619 190.183 275.267 189.622C274.915 189.061 274.728 188.401 274.728 187.726C274.728 187.051 274.915 186.392 275.267 185.831C275.619 185.27 276.118 184.833 276.703 184.575C277.288 184.317 277.931 184.25 278.551 184.383C279.172 184.515 279.741 184.841 280.188 185.319C280.786 185.958 281.121 186.824 281.121 187.726C281.121 188.629 280.786 189.495 280.188 190.134Z" fill="white"/>
</g>
<path d="M280.188 190.134C279.741 190.612 279.172 190.938 278.551 191.07C277.931 191.202 277.288 191.135 276.703 190.878C276.118 190.62 275.619 190.183 275.267 189.622C274.915 189.061 274.728 188.401 274.728 187.726C274.728 187.051 274.915 186.392 275.267 185.831C275.619 185.27 276.118 184.833 276.703 184.575C277.288 184.317 277.931 184.25 278.551 184.383C279.172 184.515 279.741 184.841 280.188 185.319C280.786 185.958 281.121 186.824 281.121 187.726C281.121 188.629 280.786 189.495 280.188 190.134Z" stroke="#263238" stroke-linecap="round" stroke-linejoin="round"/>
<path d="M276.48 187.73L277.603 188.867L279.252 186.455" stroke="#263238" stroke-linecap="round" stroke-linejoin="round"/>
<path d="M195.998 70.5869H187.553V74.4116H195.998V70.5869Z" fill="white" stroke="#263238" stroke-linecap="round" stroke-linejoin="round"/>
<path d="M197.302 71.2246H195.991V73.7667H197.302V71.2246Z" fill="white" stroke="#263238" stroke-linecap="round" stroke-linejoin="round"/>
<path d="M277.445 73.0215H275.947V74.4116H277.445V73.0215Z" fill="white" stroke="#263238" stroke-linecap="round" stroke-linejoin="round"/>
<path d="M280.361 71.624H278.863V74.4119H280.361V71.624Z" fill="white" stroke="#263238" stroke-linecap="round" stroke-linejoin="round"/>
<path d="M283.284 70.2334H281.786V74.4113H283.284V70.2334Z" fill="white" stroke="#263238" stroke-linecap="round" stroke-linejoin="round"/>
<path d="M286.207 68.8359H284.709V74.4116H286.207V68.8359Z" fill="white" stroke="#263238" stroke-linecap="round" stroke-linejoin="round"/>
<path d="M192.578 218.719H227.009C227.235 218.719 227.458 218.671 227.667 218.579C227.876 218.487 228.066 218.352 228.225 218.181C228.385 218.011 228.512 217.808 228.598 217.586C228.685 217.363 228.729 217.124 228.729 216.883C228.729 216.642 228.685 216.404 228.598 216.181C228.512 215.958 228.385 215.756 228.225 215.585C228.066 215.415 227.876 215.28 227.667 215.188C227.458 215.095 227.235 215.048 227.009 215.048H192.578C192.122 215.048 191.684 215.241 191.361 215.585C191.039 215.93 190.857 216.397 190.857 216.883C190.857 217.37 191.039 217.837 191.361 218.181C191.684 218.526 192.122 218.719 192.578 218.719Z" fill="white" stroke="#263238" stroke-linecap="round" stroke-linejoin="round"/>
<path d="M282.024 222.72H191.736C191.615 222.708 191.492 222.723 191.376 222.765C191.261 222.806 191.154 222.873 191.064 222.961C190.974 223.049 190.902 223.156 190.853 223.275C190.804 223.394 190.778 223.523 190.778 223.653C190.778 223.783 190.804 223.912 190.853 224.031C190.902 224.15 190.974 224.257 191.064 224.345C191.154 224.432 191.261 224.499 191.376 224.541C191.492 224.582 191.615 224.598 191.736 224.586H282.024C282.146 224.598 282.268 224.582 282.384 224.541C282.5 224.499 282.606 224.432 282.696 224.345C282.786 224.257 282.858 224.15 282.907 224.031C282.957 223.912 282.982 223.783 282.982 223.653C282.982 223.523 282.957 223.394 282.907 223.275C282.858 223.156 282.786 223.049 282.696 222.961C282.606 222.873 282.5 222.806 282.384 222.765C282.268 222.723 282.146 222.708 282.024 222.72Z" fill="white" stroke="#263238" stroke-linecap="round" stroke-linejoin="round"/>
<path d="M282.024 227.72H191.736C191.615 227.708 191.492 227.723 191.376 227.765C191.261 227.806 191.154 227.873 191.064 227.961C190.974 228.049 190.902 228.156 190.853 228.275C190.804 228.394 190.778 228.523 190.778 228.653C190.778 228.783 190.804 228.912 190.853 229.031C190.902 229.15 190.974 229.257 191.064 229.345C191.154 229.432 191.261 229.499 191.376 229.541C191.492 229.582 191.615 229.598 191.736 229.586H282.024C282.146 229.598 282.268 229.582 282.384 229.541C282.5 229.499 282.606 229.432 282.696 229.345C282.786 229.257 282.858 229.15 282.907 229.031C282.957 228.912 282.982 228.783 282.982 228.653C282.982 228.523 282.957 228.394 282.907 228.275C282.858 228.156 282.786 228.049 282.696 227.961C282.606 227.873 282.5 227.806 282.384 227.765C282.268 227.723 282.146 227.708 282.024 227.72Z" fill="white" stroke="#263238" stroke-linecap="round" stroke-linejoin="round"/>
<path d="M260.424 232.704H191.736C191.615 232.692 191.492 232.708 191.376 232.749C191.261 232.791 191.154 232.858 191.064 232.945C190.974 233.033 190.902 233.14 190.853 233.259C190.804 233.378 190.778 233.507 190.778 233.637C190.778 233.767 190.804 233.896 190.853 234.015C190.902 234.134 190.974 234.241 191.064 234.329C191.154 234.417 191.261 234.484 191.376 234.525C191.492 234.567 191.615 234.582 191.736 234.57H260.424C260.546 234.582 260.668 234.567 260.784 234.525C260.9 234.484 261.006 234.417 261.096 234.329C261.186 234.241 261.258 234.134 261.307 234.015C261.357 233.896 261.382 233.767 261.382 233.637C261.382 233.507 261.357 233.378 261.307 233.259C261.258 233.14 261.186 233.033 261.096 232.945C261.006 232.858 260.9 232.791 260.784 232.749C260.668 232.708 260.546 232.692 260.424 232.704Z" fill="white" stroke="#263238" stroke-linecap="round" stroke-linejoin="round"/>
<path d="M268.891 256.412H262.469V263.263H268.891V256.412Z" fill="white" stroke="#263238" stroke-linecap="round" stroke-linejoin="round"/>
<path d="M280.08 263.263C280.932 263.263 281.748 262.902 282.351 262.259C282.953 261.617 283.291 260.746 283.291 259.837C283.291 258.929 282.953 258.058 282.351 257.415C281.748 256.773 280.932 256.412 280.08 256.412C279.228 256.412 278.411 256.773 277.809 257.415C277.207 258.058 276.869 258.929 276.869 259.837C276.869 260.746 277.207 261.617 277.809 262.259C278.411 262.902 279.228 263.263 280.08 263.263Z" fill="white" stroke="#263238" stroke-linecap="round" stroke-linejoin="round"/>
<path d="M247.349 263.263H255.211L251.28 256.412L247.349 263.263Z" fill="#757575" stroke="#263238" stroke-linecap="round" stroke-linejoin="round"/>
<path d="M223.725 160.804H190.569V199.296H223.725V160.804Z" fill="white"/>
<mask id="mask7_262_2815" style="mask-type:luminance" maskUnits="userSpaceOnUse" x="190" y="160" width="34" height="40">
<path d="M223.725 160.804H190.569V199.296H223.725V160.804Z" fill="white"/>
</mask>
<g mask="url(#mask7_262_2815)">
<g opacity="0.4">
<path d="M223.726 163.646C223.301 164.114 222.962 164.629 222.595 164.567C221.839 164.437 221.299 164.813 220.867 164.567C220.435 164.321 220.327 165.566 220.327 165.566L219.571 166.264L218.923 166.51C218.923 166.51 218.592 167.14 218.923 167.462C219.254 167.785 219.607 168.353 218.772 168.353H217.44C217.44 168.353 217.008 167.486 216.468 167.462C215.928 167.439 215.712 166.264 215.712 166.264V165.266L213.761 166.264C213.761 166.264 212.573 166.556 212.573 166.994V168.53L212.033 169.644L213.869 169.966L214.524 168.853C214.524 168.853 215.28 168.568 215.388 169.091C215.467 169.838 215.503 170.589 215.496 171.341C215.225 171.784 215.007 172.261 214.848 172.762C215.568 173.53 215.388 173.706 215.82 173.852C216.018 173.964 216.184 174.132 216.298 174.338C216.413 174.544 216.471 174.78 216.468 175.02V175.381C216.468 175.381 214.409 175.55 215.82 176.563C216.245 176.87 216.41 176.993 216.461 177.039L216.569 177.109C216.8 177.23 217.017 177.38 217.217 177.554C217.217 177.554 217.318 177.516 217.757 177.554C218.405 177.654 218.837 176.018 219.6 177.078C220.064 177.774 220.569 178.439 221.112 179.067L221.436 179.39L223.596 180.073H223.747L223.726 163.646Z" fill="#0093A5"/>
<path d="M193.442 199.15V199.096C193.442 198.42 194.522 198.62 194.846 198.098C195.17 197.576 195.818 196.7 195.818 196.7V196.078L196.041 195.195C196.257 194.319 196.905 195.502 197.661 195.54C198.417 195.579 199.101 195.502 199.173 194.926C199.245 194.35 199.173 194.926 199.173 193.674C199.173 192.422 199.173 193.198 199.937 193.167L201.341 193.674C201.941 193.896 202.554 194.075 203.177 194.212C204.149 194.419 203.609 195.195 203.609 195.195L205.049 195.686H207.101L207.821 196.577L208.541 196.7H209.88L210.42 195.686C210.684 195.479 210.975 195.313 211.284 195.195C211.722 195.199 212.157 195.264 212.58 195.387H213.3C214.02 195.387 213.905 194.289 213.905 194.289L214.337 193.697L214.56 193.19L215.532 191.831L216.201 191.117C216.864 190.403 216.504 190.103 216.504 190.103L216.201 189.335C215.892 188.567 216.828 189.243 216.828 189.243C217.453 189.46 218.066 189.717 218.664 190.011C219.859 190.556 219.643 189.588 219.751 189.243C219.814 188.381 219.626 187.52 219.211 186.778C218.664 185.626 219.211 186.778 218.887 186.977C218.652 187.132 218.375 187.199 218.1 187.168C217.826 187.138 217.568 187.011 217.368 186.808C217.47 186.597 217.523 186.363 217.523 186.125C217.523 185.887 217.47 185.653 217.368 185.441C217.044 184.558 216.612 185.395 216.072 185.441C215.696 185.468 215.322 185.38 214.992 185.188C214.776 185.08 214.661 184.719 214.013 184.504C213.365 184.289 213.581 184.504 212.609 185.94H212.069C212.069 185.94 211.853 186.708 211.529 186.824C211.273 186.87 211.009 186.829 210.777 186.706C210.544 186.583 210.353 186.385 210.233 186.14C210.017 185.603 211.421 185.411 212.501 185.057C213.581 184.704 211.961 183.521 211.961 183.521L211.853 182.508L211.421 182.047C210.989 181.586 210.125 181.816 209.801 180.772C209.477 179.727 210.125 180.319 209.577 179.681C209.289 179.327 208.949 179.026 208.569 178.79C208.569 178.79 205.905 179.512 205.041 178.79C204.177 178.068 204.062 179.021 204.062 179.021L203.04 180.365V182.016H200.88L200.16 180.902C200.16 180.902 199.188 178.89 199.836 178.744C200.484 178.598 200.707 178.744 200.707 178.744L201.463 177.846C201.463 177.846 202.421 177.938 202.529 177.631C202.637 177.324 202.205 176.21 202.205 176.21L200.909 175.173L200.145 174.835C199.389 174.497 199.173 174.367 199.173 174.367L198.741 173.96C198.309 173.553 198.021 174.482 197.661 174.513C197.301 174.543 196.257 173.445 195.933 172.746C195.609 172.047 197.121 172.631 197.553 172.316C197.985 172.001 198.309 171.479 198.309 169.882C198.309 168.284 197.769 169.751 197.337 169.974C196.701 170.218 196 170.185 195.386 169.882C194.522 169.551 195.17 169.405 194.63 169.421C194.09 169.436 191.714 169.882 191.714 169.882C191.714 169.882 191.138 170.65 190.569 171.418V199.142L193.442 199.15Z" fill="#0093A5"/>
<path d="M201.463 171.502C200.361 169.82 203.176 169.966 203.5 170.142C203.975 170.254 204.466 170.254 204.94 170.142V169.444C204.94 169.444 205.66 169.444 206.02 169.444C206.38 169.444 206.884 168.775 206.992 169.505C207.048 170.049 207.048 170.597 206.992 171.141C206.992 171.502 206.762 172.016 207.043 172.339C207.324 172.662 206.02 173.03 206.02 173.422C206.02 173.814 206.452 175.726 205.588 174.535C204.724 173.345 204.933 172.953 204.285 172.631L203.637 172.308C203.637 172.308 202.672 173.353 201.463 171.502Z" fill="#0093A5"/>
<path d="M196.149 163.077L195.933 162.616H195.213C194.762 162.045 194.281 161.502 193.773 160.988C194.346 161.157 194.958 161.092 195.487 160.804H190.577V167.032C190.645 167.136 190.744 167.211 190.857 167.247C191.582 167.328 192.315 167.263 193.017 167.055C193.665 166.871 193.017 166.541 193.017 165.619C193.017 164.697 193.737 165.619 193.737 165.619L194.457 165.243C194.76 164.965 194.984 164.604 195.105 164.198C195.329 163.499 195.573 164.198 195.573 164.198L196.524 164.513C196.524 164.513 197.381 164.552 197.381 164.198C197.381 163.845 196.149 163.077 196.149 163.077Z" fill="#0093A5"/>
<path d="M223.725 193.767C223.632 194.074 223.61 194.535 223.293 194.773C222.753 195.118 223.293 194.773 222.753 194.773C222.213 194.773 221.889 195.372 222.163 196.27L221.335 196.401V195.84L219.945 195.495L219.765 195.541C219.381 196.07 219.132 196.698 219.045 197.361C218.326 197.419 217.604 197.419 216.885 197.361C215.805 197.269 216.885 197.952 216.885 197.952L218.613 198.267L219.268 197.952C219.916 197.645 220.456 198.889 220.456 198.889C220.698 198.337 220.987 197.81 221.32 197.315C221.644 196.946 222.4 197.461 223.264 197.361L223.696 197.107L223.725 193.767Z" fill="#0093A5"/>
</g>
</g>
<path d="M223.725 160.804H190.569V199.296H223.725V160.804Z" stroke="#263238" stroke-linecap="round" stroke-linejoin="round"/>
<path d="M118.858 212.444C118.858 212.444 135.641 242.25 137.189 251.612C138.715 260.828 110.808 313.82 113.486 321.009C116.165 328.197 118.001 335.24 122.782 337.59C127.562 339.94 125.143 341.322 121.838 341.714C118.534 342.106 110.822 340.631 106.927 335.532C103.032 330.432 98.2872 332.729 96.984 328.835C95.8104 325.256 97.5528 323.873 101.707 316.8C105.862 309.727 109.26 290.903 110.275 281.104C112.061 263.87 119.038 252.304 119.038 252.304C119.038 252.304 107.597 240.407 101.556 228.626L118.858 212.444Z" fill="#BFBFBF" stroke="#263238" stroke-linecap="round" stroke-linejoin="round"/>
<path d="M100.8 228.772C100.8 228.772 99.3598 259.745 98.2942 265.382C97.2286 271.019 95.4142 278.116 94.5718 282.985C91.2094 301.977 85.0894 317.752 86.0758 329.572C86.3566 332.92 88.5382 336.276 93.715 340.278C99.0502 344.394 106.711 343.749 105.365 345.976C100.375 354.217 87.8038 347.558 81.3886 347.927C78.415 348.104 71.791 350.108 71.7118 343.741C71.647 338.88 73.8718 336.138 74.8366 329.572C77.3422 313.006 74.1886 300.188 75.319 290.05C76.8742 276.188 80.899 270.85 79.4302 261.949C77.9614 253.048 75.1102 235.484 73.2958 219.21C71.4814 202.936 100.8 228.772 100.8 228.772Z" fill="#BFBFBF" stroke="#263238" stroke-linecap="round" stroke-linejoin="round"/>
<path d="M96.4365 112.42C96.4365 112.42 103.997 109.701 107.237 109.44C109.397 109.263 115.697 105.446 115.697 105.446C115.697 105.446 116.316 103.703 117.029 103.695C120.809 103.695 127.173 111.007 128.052 117.965C128.973 125.261 124.207 125.791 124.207 125.791C118.605 135.967 115.193 132.541 112.248 139.814C110.685 143.67 96.4365 112.42 96.4365 112.42Z" fill="#0093A5"/>
<mask id="mask8_262_2815" style="mask-type:luminance" maskUnits="userSpaceOnUse" x="96" y="103" width="33" height="38">
<path d="M96.4365 112.42C96.4365 112.42 103.997 109.701 107.237 109.44C109.397 109.263 115.697 105.446 115.697 105.446C115.697 105.446 116.316 103.703 117.029 103.695C120.809 103.695 127.173 111.007 128.052 117.965C128.973 125.261 124.207 125.791 124.207 125.791C118.605 135.967 115.193 132.541 112.248 139.814C110.685 143.67 96.4365 112.42 96.4365 112.42Z" fill="white"/>
</mask>
<g mask="url(#mask8_262_2815)">
<path opacity="0.2" d="M125.474 125.337C125.077 125.566 124.646 125.719 124.2 125.791C118.598 135.967 115.185 132.541 112.241 139.814C111.873 140.72 110.801 139.699 109.404 137.602L110.124 119.255C110.124 119.255 114.177 124.539 117.878 127.219C117.878 127.219 115.977 123.648 117.878 123.233C119.001 122.98 122.011 124.416 125.474 125.337Z" fill="black" fill-opacity="0.7"/>
</g>
<path d="M96.4365 112.42C96.4365 112.42 103.997 109.701 107.237 109.44C109.397 109.263 115.697 105.446 115.697 105.446C115.697 105.446 116.316 103.703 117.029 103.695C120.809 103.695 127.173 111.007 128.052 117.965C128.973 125.261 124.207 125.791 124.207 125.791C118.605 135.967 115.193 132.541 112.248 139.814C110.685 143.67 96.4365 112.42 96.4365 112.42Z" stroke="#263238" stroke-linecap="round" stroke-linejoin="round"/>
<path d="M124.898 121.943C132.638 111.352 143.006 96.983 141.17 92.4211C139.334 87.8591 127.389 83.8195 121.874 82.1375C116.359 80.4556 105.602 77.2377 105.602 77.2377C105.602 77.2377 97.5958 70.2412 96.5374 70.2412C95.479 70.2412 89.9854 73.8431 89.9854 73.8431C89.9854 73.8431 92.4766 82.6982 92.5918 82.2911C92.707 81.8841 104.94 82.6137 111.643 88.8038C115.656 92.5162 120.28 95.4016 125.28 97.3132C123.001 100.24 120.499 102.96 117.799 105.446C117.47 108.41 117.831 111.414 118.85 114.194C121.219 121.06 124.898 121.943 124.898 121.943Z" fill="#BFBFBF" stroke="#263238" stroke-linecap="round" stroke-linejoin="round"/>
<path d="M112.997 166.695C112.809 176.494 109.994 190.779 99.7269 191.893C89.4597 193.006 73.5765 191.755 62.683 196.654C51.7894 201.554 52.0558 187.392 52.0558 187.392C52.0558 187.392 68.0686 160.236 74.239 151.296C80.4093 142.357 108.619 135.76 108.619 135.76C108.619 135.76 113.299 150.459 112.997 166.695Z" fill="#263238" stroke="#263238" stroke-linecap="round" stroke-linejoin="round"/>
<path d="M64.7999 126.098C71.8847 117.965 86.8967 115.399 86.8967 115.399C86.8967 115.399 102.513 120.123 106.013 130.575C109.512 141.028 109.857 161.779 109.857 161.779L113.011 199.772C113.011 199.772 86.3711 204.933 75.8879 201.915C75.8879 201.915 76.7159 175.626 72.8135 163.515C68.9111 151.403 60.0047 131.581 64.7999 126.098Z" fill="#BFBFBF" stroke="#263238" stroke-linecap="round" stroke-linejoin="round"/>
<path d="M101.729 112.543C95.6014 111.882 88.4302 114.194 88.4302 114.194C95.7022 117.089 101.743 127.25 101.743 127.25C107.006 134.262 111.859 155.251 112.997 166.725C112.997 166.725 113.717 121.328 108.36 115.43" fill="#0093A5"/>
<path d="M101.729 112.543C95.6014 111.882 88.4302 114.194 88.4302 114.194C95.7022 117.089 101.743 127.25 101.743 127.25C107.006 134.262 111.859 155.251 112.997 166.725C112.997 166.725 113.717 121.328 108.36 115.43" stroke="#263238" stroke-linecap="round" stroke-linejoin="round"/>
<path d="M77.5151 126.658C77.5151 126.658 88.3151 128.194 91.5191 128.056C92.484 128.036 93.4402 128.253 94.3141 128.69C95.1879 129.126 95.956 129.771 96.5591 130.575" fill="#BFBFBF"/>
<path d="M77.5151 126.658C77.5151 126.658 88.3151 128.194 91.5191 128.056C92.484 128.036 93.4402 128.253 94.3141 128.69C95.1879 129.126 95.956 129.771 96.5591 130.575" stroke="#263238" stroke-linecap="round" stroke-linejoin="round"/>
<path d="M101.642 124.7C101.642 124.7 98.0422 127.496 97.8694 127.496C97.7974 128.241 97.7974 128.993 97.8694 129.738" fill="#BFBFBF"/>
<path d="M101.642 124.7C101.642 124.7 98.0422 127.496 97.8694 127.496C97.7974 128.241 97.7974 128.993 97.8694 129.738" stroke="#263238" stroke-linecap="round" stroke-linejoin="round"/>
<path d="M80.3156 111.36C89.2796 110.707 96.7388 115.093 100.67 117.896C104.601 120.699 107.229 126.667 107.229 126.667L101.743 122.396V127.227C101.743 127.227 84.254 114.117 75.8732 119.086C75.8732 119.079 74.4404 111.775 80.3156 111.36Z" fill="#0093A5"/>
<mask id="mask9_262_2815" style="mask-type:luminance" maskUnits="userSpaceOnUse" x="75" y="111" width="33" height="17">
<path d="M80.3156 111.36C89.2796 110.707 96.7388 115.093 100.67 117.896C104.601 120.699 107.229 126.667 107.229 126.667L101.743 122.396V127.227C101.743 127.227 84.254 114.117 75.8732 119.086C75.8732 119.079 74.4404 111.775 80.3156 111.36Z" fill="white"/>
</mask>
<g mask="url(#mask9_262_2815)">
<path opacity="0.2" d="M100.533 126.359C96.6741 123.686 84.4629 115.876 77.1621 118.487C77.1621 117.204 77.7381 115.53 79.9197 114.194C83.9301 111.752 98.5893 116.544 100.533 126.359Z" fill="black" fill-opacity="0.7"/>
</g>
<path d="M80.3156 111.36C89.2796 110.707 96.7388 115.093 100.67 117.896C104.601 120.699 107.229 126.667 107.229 126.667L101.743 122.396V127.227C101.743 127.227 84.254 114.117 75.8732 119.086C75.8732 119.079 74.4404 111.775 80.3156 111.36Z" stroke="#263238" stroke-linecap="round" stroke-linejoin="round"/>
<path d="M80.3159 119.363C83.4191 110.423 81.5615 103.864 81.5615 103.864C83.2016 103.716 84.8481 103.665 86.4935 103.711C90.8135 103.841 96.3863 104.748 96.5159 108.603C96.5625 110.356 96.5048 112.111 96.3431 113.856C96.0015 117.497 95.4848 121.116 94.7951 124.7" fill="#BFBFBF"/>
<path d="M80.3159 119.363C83.4191 110.423 81.5615 103.864 81.5615 103.864C83.2016 103.716 84.8481 103.665 86.4935 103.711C90.8135 103.841 96.3863 104.748 96.5159 108.603C96.5625 110.356 96.5048 112.111 96.3431 113.856C96.0015 117.497 95.4848 121.116 94.7951 124.7" stroke="#263238" stroke-linecap="round" stroke-linejoin="round"/>
<path d="M96.3433 113.856C87.0481 112.144 87.0481 106.361 87.0481 106.361L86.4937 103.711C90.8137 103.841 96.3865 104.748 96.5161 108.603C96.5627 110.356 96.5049 112.111 96.3433 113.856Z" fill="#263238"/>
<path d="M66.96 99.6868C66.0672 104.11 75.096 104.21 90.3456 94.3108C105.595 84.4113 110.981 77.4993 104.674 74.6577C98.3664 71.8161 70.2504 83.1748 66.96 99.6868Z" fill="#0093A5"/>
<mask id="mask10_262_2815" style="mask-type:luminance" maskUnits="userSpaceOnUse" x="66" y="74" width="42" height="29">
<path d="M66.96 99.6868C66.0672 104.11 75.096 104.21 90.3456 94.3108C105.595 84.4113 110.981 77.4993 104.674 74.6577C98.3664 71.8161 70.2504 83.1748 66.96 99.6868Z" fill="white"/>
</mask>
<g mask="url(#mask10_262_2815)">
<path opacity="0.2" d="M72.1799 99.6872C70.3655 99.7486 72.3311 90.2101 85.7807 82.7912C99.2303 75.3723 103.125 78.836 102.413 81.2552C101.7 83.6744 81.7775 99.3646 72.1799 99.6872Z" fill="black" fill-opacity="0.7"/>
</g>
<path d="M66.96 99.6868C66.0672 104.11 75.096 104.21 90.3456 94.3108C105.595 84.4113 110.981 77.4993 104.674 74.6577C98.3664 71.8161 70.2504 83.1748 66.96 99.6868Z" stroke="#263238" stroke-linecap="round" stroke-linejoin="round"/>
<path d="M85.7808 106.314C86.8824 109.67 95.2416 111.575 98.1576 110.746C100.217 110.162 101.117 106.629 101.599 102.121C102.24 96.2074 100.519 94.1031 100.505 89.6333C100.505 83.9348 96.048 78.0288 93.7944 76.946C87.2352 73.7895 75.852 78.6509 75.8736 85.5936C75.9096 93.5962 77.4792 99.3101 79.7472 103.319C80.3469 104.227 81.1451 104.965 82.0728 105.469" fill="#BFBFBF"/>
<path d="M85.7808 106.314C86.8824 109.67 95.2416 111.575 98.1576 110.746C100.217 110.162 101.117 106.629 101.599 102.121C102.24 96.2074 100.519 94.1031 100.505 89.6333C100.505 83.9348 96.048 78.0288 93.7944 76.946C87.2352 73.7895 75.852 78.6509 75.8736 85.5936C75.9096 93.5962 77.4792 99.3101 79.7472 103.319C80.3469 104.227 81.1451 104.965 82.0728 105.469" stroke="#263238" stroke-linecap="round" stroke-linejoin="round"/>
<path d="M97.8696 87.3529C98.2503 87.1768 98.6607 87.0859 99.0756 87.0859C99.4905 87.0859 99.901 87.1768 100.282 87.3529" stroke="#263238" stroke-linecap="round" stroke-linejoin="round"/>
<path d="M93.5999 88.0512C92.8053 87.8842 91.9836 87.9424 91.2167 88.22C90.4498 88.4976 89.7646 88.9849 89.2295 89.6333" stroke="#263238" stroke-linecap="round" stroke-linejoin="round"/>
<path d="M93.1318 92.3445C93.2038 92.9359 93.0238 93.4504 92.7214 93.4965C92.419 93.5426 92.1238 93.0895 92.0446 92.4981C91.9654 91.9067 92.1598 91.3845 92.455 91.3461C92.7502 91.3077 93.0598 91.7455 93.1318 92.3445Z" fill="#263238"/>
<path d="M99.8278 91.1003C99.907 91.6917 99.7198 92.2062 99.4246 92.2523C99.1294 92.2984 98.8198 91.8453 98.7478 91.2539C98.6758 90.6626 98.8558 90.1403 99.1582 90.1019C99.4606 90.0635 99.7558 90.509 99.8278 91.1003Z" fill="#263238"/>
<path d="M97.5023 88.2051C97.5023 88.2051 96.8831 90.8854 97.3223 92.0912C97.7615 93.2969 101.901 95.9926 101.642 97.4672C101.383 98.9417 96.7103 99.1644 96.5303 98.2352" fill="#BFBFBF"/>
<path d="M97.5023 88.2051C97.5023 88.2051 96.8831 90.8854 97.3223 92.0912C97.7615 93.2969 101.901 95.9926 101.642 97.4672C101.383 98.9417 96.7103 99.1644 96.5303 98.2352" stroke="#263238" stroke-linecap="round" stroke-linejoin="round"/>
<path d="M100.281 101.453C97.8161 102.407 95.1429 102.57 92.5918 101.922" stroke="#263238" stroke-linecap="round" stroke-linejoin="round"/>
<path d="M96.5231 79.442C96.5231 79.442 96.1919 80.594 93.0239 80.21C89.8559 79.826 85.2695 81.0241 85.2695 81.0241C85.2695 81.0241 88.4375 84.219 87.4295 86.2311C86.4215 88.2433 84.3695 91.8606 85.3487 94.8865C84.0617 95.7362 82.9773 96.8929 82.1807 98.2657C81.2015 100.247 82.6919 103.319 81.5327 105.124C80.3735 106.929 74.3327 100.086 73.2239 92.4212C72.1151 84.7566 72.4607 78.9812 80.5463 75.9246C88.6319 72.8679 96.0839 76.0705 96.5231 79.442Z" fill="#263238"/>
<path d="M84.6649 96.092C84.6649 96.092 83.2249 90.9618 81.0145 91.3381C78.8041 91.7144 77.8105 97.5666 78.9049 98.8491C79.9993 100.132 81.4465 103.319 82.7569 103.319C84.0673 103.319 84.6649 101.015 84.6649 101.015" fill="#BFBFBF"/>
<path d="M84.6649 96.092C84.6649 96.092 83.2249 90.9618 81.0145 91.3381C78.8041 91.7144 77.8105 97.5666 78.9049 98.8491C79.9993 100.132 81.4465 103.319 82.7569 103.319C84.0673 103.319 84.6649 101.015 84.6649 101.015" stroke="#263238" stroke-linecap="round" stroke-linejoin="round"/>
<path d="M95.4505 75.7633C95.4505 75.7633 91.1305 71.355 87.8257 70.3105C87.8257 70.3105 88.1137 68.6746 85.1113 69.842C82.1089 71.0094 73.5913 73.9201 70.2001 79.2807C66.8089 84.6414 70.2001 83.1207 70.2001 83.1207C70.2001 83.1207 70.7113 88.9268 71.8201 91.0618C71.8201 91.0695 82.8001 77.8446 95.4505 75.7633Z" fill="#0093A5" stroke="#263238" stroke-linecap="round" stroke-linejoin="round"/>
<path d="M73.0944 94.7944C73.0944 94.7944 81.9072 79.0197 100.67 79.1426L104.638 74.6498C104.638 74.6498 95.04 70.6101 80.2224 80.6402C67.9536 88.8654 66.96 99.6866 66.96 99.6866L73.0944 94.7944Z" fill="#0093A5"/>
<path d="M73.0942 94.7942C73.0942 94.7942 81.907 79.0194 100.67 79.1423" stroke="#263238" stroke-linecap="round" stroke-linejoin="round"/>
<path d="M104.638 74.6498C104.638 74.6498 95.04 70.6101 80.2224 80.6402C67.9536 88.8654 66.96 99.6866 66.96 99.6866" stroke="#263238" stroke-linecap="round" stroke-linejoin="round"/>
<path d="M75.8301 188.16C75.8301 188.16 97.4301 191.14 102.024 189.212C106.617 187.285 111.513 182.669 111.513 182.669C111.513 182.669 113.673 185.219 113.673 186.248V189.819C113.673 189.819 115.574 194.358 115.574 201.685C115.574 201.685 128.116 219.817 134.071 236.721C134.071 236.721 137.469 237.489 135.511 241.928C134.748 243.679 128.764 252.28 110.743 254.646C109.72 254.776 109.656 250.407 109.656 250.407C109.656 250.407 103.744 249.731 102.859 247.158L101.037 256.927C101.037 256.927 101.383 259.945 100.9 260.682C95.7813 268.362 82.5045 269.683 69.8757 261.65C68.7093 260.882 71.6901 256.19 71.6901 256.19C69.9045 252.672 72.6477 242.688 72.6477 242.688C72.6477 242.688 69.5445 231.222 69.9405 219.387C70.3365 207.552 75.4125 196.562 75.4125 196.562C75.4125 196.562 73.8429 190.464 75.8301 188.16Z" fill="#263238"/>
<path d="M84.6646 153.808C87.5711 154.386 90.515 154.724 93.4702 154.821C97.2718 154.821 99.7269 150.981 99.7269 150.981" stroke="#263238" stroke-linecap="round" stroke-linejoin="round"/>
<path d="M102.888 150.167C102.888 150.167 104.753 151.358 105.53 150.974C106.984 150.195 108.191 148.977 109 147.472" stroke="#263238" stroke-linecap="round" stroke-linejoin="round"/>
<path d="M98.2225 159.99C98.2225 159.99 93.3697 166.902 91.4761 172.14L98.2225 159.99Z" fill="#0093A5"/>
<path d="M98.2225 159.99C98.2225 159.99 93.3697 166.902 91.4761 172.14" stroke="#263238" stroke-linecap="round" stroke-linejoin="round"/>
<path d="M105.941 158.062C107.31 158.931 108.382 160.245 109.001 161.81L105.941 158.062Z" fill="#0093A5"/>
<path d="M105.941 158.062C107.31 158.931 108.382 160.245 109.001 161.81" stroke="#263238" stroke-linecap="round" stroke-linejoin="round"/>
<path d="M87.0479 124.7C87.0479 124.7 87.3935 135.337 88.4303 142.894C89.4671 150.451 74.4983 202.276 57.4703 209.825C57.4703 209.825 58.7879 206.277 57.4703 204.549C56.1527 202.821 46.1303 198.912 44.4311 192.476C42.7319 186.04 53.2367 177.339 53.2367 177.339C53.2367 177.339 65.8367 166.126 63.4751 159.13C61.1135 152.133 61.3727 126.659 61.3727 126.659C65.4491 123.276 69.8487 120.362 74.4983 117.965C74.4983 117.965 79.6679 125.537 82.0727 126.659C84.4775 127.78 87.0479 124.7 87.0479 124.7Z" fill="#0093A5"/>
<mask id="mask11_262_2815" style="mask-type:luminance" maskUnits="userSpaceOnUse" x="44" y="117" width="45" height="93">
<path d="M87.0479 124.7C87.0479 124.7 87.3935 135.337 88.4303 142.894C89.4671 150.451 74.4983 202.276 57.4703 209.825C57.4703 209.825 58.7879 206.277 57.4703 204.549C56.1527 202.821 46.1303 198.912 44.4311 192.476C42.7319 186.04 53.2367 177.339 53.2367 177.339C53.2367 177.339 65.8367 166.126 63.4751 159.13C61.1135 152.133 61.3727 126.659 61.3727 126.659C65.4491 123.276 69.8487 120.362 74.4983 117.965C74.4983 117.965 79.6679 125.537 82.0727 126.659C84.4775 127.78 87.0479 124.7 87.0479 124.7Z" fill="white"/>
</mask>
<g mask="url(#mask11_262_2815)">
<path opacity="0.2" d="M72.7989 161.81L73.0941 169.821L70.5021 169.129C70.5021 169.129 65.0661 185.672 47.2461 183.721C49.0171 181.364 51.026 179.221 53.2365 177.332C53.2365 177.332 65.8365 166.119 63.4749 159.122C62.6037 156.55 62.0925 151.442 61.7901 146.066L73.4397 146.512C73.4397 146.512 72.5973 149.791 74.2389 151.289L75.4917 150.029C75.4917 150.029 77.1333 157.863 72.7989 161.81Z" fill="black" fill-opacity="0.7"/>
</g>
<path d="M87.0479 124.7C87.0479 124.7 87.3935 135.337 88.4303 142.894C89.4671 150.451 74.4983 202.276 57.4703 209.825C57.4703 209.825 58.7879 206.277 57.4703 204.549C56.1527 202.821 46.1303 198.912 44.4311 192.476C42.7319 186.04 53.2367 177.339 53.2367 177.339C53.2367 177.339 65.8367 166.126 63.4751 159.13C61.1135 152.133 61.3727 126.659 61.3727 126.659C65.4491 123.276 69.8487 120.362 74.4983 117.965C74.4983 117.965 79.6679 125.537 82.0727 126.659C84.4775 127.78 87.0479 124.7 87.0479 124.7Z" stroke="#263238" stroke-linecap="round" stroke-linejoin="round"/>
<path d="M77.3425 115.4C75.8593 119.132 87.0481 124.7 87.0481 124.7L84.6649 132.542C84.6649 132.542 72.8137 123.571 72.7993 119.363C72.7993 113.856 76.5577 111.683 80.3161 111.353" fill="#0093A5"/>
<path d="M77.3425 115.4C75.8593 119.132 87.0481 124.7 87.0481 124.7L84.6649 132.542C84.6649 132.542 72.8137 123.571 72.7993 119.363C72.7993 113.856 76.5577 111.683 80.3161 111.353" stroke="#263238" stroke-linecap="round" stroke-linejoin="round"/>
<path d="M64.6056 221.338C64.6056 221.338 67.6728 221.991 68.4576 226.929C69.2424 231.867 67.1688 259.515 71.8704 260.429C76.572 261.343 77.9976 246.221 77.9976 246.221L79.0632 245.453C79.0632 245.453 77.4 263.301 71.7192 261.704C66.0384 260.107 66.6792 246.951 67.0176 241.567C67.356 236.183 68.4576 224.671 63.7056 223.903L64.6056 221.338Z" fill="#0093A5" stroke="#263238" stroke-linecap="round" stroke-linejoin="round"/>
<path d="M69.6312 156.441C69.6312 156.441 66.0312 174.474 66.3624 178.322C66.6936 182.169 68.5224 192.998 66.3624 201.961C64.2024 210.923 64.6128 226.928 64.6128 226.928H55.6848C55.6848 226.928 53.028 191.447 54 183.552C54 183.552 53.0208 177.07 53.7912 174.236C54.5616 171.402 53.7912 162.286 54.5688 154.79C55.3464 147.295 69.6312 156.441 69.6312 156.441Z" fill="#BFBFBF" stroke="#263238" stroke-linecap="round" stroke-linejoin="round"/>
<path d="M72.3456 137.472C73.3968 141.151 73.7856 144.929 73.0656 147.517C71.0352 155.197 69.6024 163.876 69.6024 163.876C69.6024 163.876 71.208 166.18 69.6024 168.415C67.9968 170.649 52.0488 167.278 48.6288 163.876C45.2088 160.473 52.0272 159.805 52.0272 159.805C52.0272 159.805 52.0272 149.867 52.0272 147.878C52.0272 145.889 54.324 144.13 54.324 139.545C54.324 134.961 57.636 129.523 61.344 126.643C62.9424 125.399 64.5984 125.606 66.1608 126.728" fill="#0093A5"/>
<path d="M72.3456 137.472C73.3968 141.151 73.7856 144.929 73.0656 147.517C71.0352 155.197 69.6024 163.876 69.6024 163.876C69.6024 163.876 71.208 166.18 69.6024 168.415C67.9968 170.649 52.0488 167.278 48.6288 163.876C45.2088 160.473 52.0272 159.805 52.0272 159.805C52.0272 159.805 52.0272 149.867 52.0272 147.878C52.0272 145.889 54.324 144.13 54.324 139.545C54.324 134.961 57.636 129.523 61.344 126.643C62.9424 125.399 64.5984 125.606 66.1608 126.728" stroke="#263238" stroke-linecap="round" stroke-linejoin="round"/>
<path d="M72.72 247.296C72.6192 247.595 71.8632 254.285 71.8632 254.285L72.72 255.59L71.8632 262.886C71.8632 262.886 65.2176 267.033 59.9976 261.058L61.1352 253.378L62.6472 252.196L63.6048 245.483L72.72 247.296Z" fill="#757575" stroke="#263238" stroke-linecap="round" stroke-linejoin="round"/>
<path d="M59.2917 248.402L63.6117 251.566C63.9916 251.843 64.422 252.032 64.8749 252.119C65.3278 252.207 65.7928 252.191 66.2397 252.073L78.4005 248.832C78.883 248.704 79.325 248.442 79.6817 248.072C80.0383 247.703 80.2968 247.239 80.4309 246.728L80.9349 244.816C81.1247 244.092 81.109 243.326 80.8898 242.612C80.6706 241.898 80.2578 241.27 79.7037 240.807L74.0373 236.084C73.4687 235.607 72.7582 235.364 72.0357 235.4L57.7725 236.053L59.2917 248.402Z" fill="#757575" stroke="#263238" stroke-linecap="round" stroke-linejoin="round"/>
<path d="M62.8989 237.382L67.4565 242.351L77.0685 240.984L72.0861 236.575L62.8989 237.382Z" fill="#263238"/>
<path d="M64.2238 251.904C63.1222 251.198 64.0438 245.76 64.5406 244.908C65.0374 244.055 77.6446 242.327 77.6446 242.327" stroke="#263238" stroke-linecap="round" stroke-linejoin="round"/>
<path d="M67.6798 248.394C67.5502 248.986 67.1614 249.4 66.8086 249.308C66.4558 249.216 66.2758 248.679 66.3982 248.079C66.5206 247.48 66.9166 247.081 67.2694 247.166C67.6222 247.25 67.7806 247.803 67.6798 248.394Z" stroke="#263238" stroke-linecap="round" stroke-linejoin="round"/>
<path d="M72.1941 247.78C71.9781 248.771 71.3301 249.454 70.7541 249.316C70.1781 249.178 69.8541 248.256 70.0341 247.265C70.2141 246.275 70.8981 245.583 71.4741 245.729C72.0501 245.875 72.4029 246.782 72.1941 247.78Z" stroke="#263238" stroke-linecap="round" stroke-linejoin="round"/>
<path d="M61.1421 253.363C61.1421 253.363 62.4021 255.798 65.9301 256.627C69.4581 257.457 71.5173 256.136 71.5173 256.136" stroke="#263238" stroke-linecap="round" stroke-linejoin="round"/>
<path d="M71.8704 254.277C71.8704 254.277 66.8304 255.183 63.7056 252.948" stroke="#263238" stroke-linecap="round" stroke-linejoin="round"/>
<path d="M55.4397 223.488C54.8133 226.514 50.5581 238.28 50.5581 240.008C50.5581 241.736 53.2149 241.928 53.4381 243.141C53.6613 244.355 56.8221 245.76 56.8221 245.76L57.9669 249.201C58.8778 250.313 60.1369 251.034 61.5093 251.228C63.9141 251.635 61.7613 249.201 61.5525 248.594C61.3437 247.987 61.9485 243.533 61.5525 242.519C61.1565 241.506 65.9373 236.644 66.3621 237.865C66.7869 239.086 66.1317 241.506 66.3621 242.926C66.5925 244.347 68.9757 245.96 68.5941 243.733C68.2125 241.506 70.9629 234.332 68.5941 232.597C67.4748 231.646 66.5439 230.467 65.8554 229.129C65.1669 227.79 64.7347 226.32 64.5837 224.802" fill="#BFBFBF"/>
<path d="M55.4397 223.488C54.8133 226.514 50.5581 238.28 50.5581 240.008C50.5581 241.736 53.2149 241.928 53.4381 243.141C53.6613 244.355 56.8221 245.76 56.8221 245.76L57.9669 249.201C58.8778 250.313 60.1369 251.034 61.5093 251.228C63.9141 251.635 61.7613 249.201 61.5525 248.594C61.3437 247.987 61.9485 243.533 61.5525 242.519C61.1565 241.506 65.9373 236.644 66.3621 237.865C66.7869 239.086 66.1317 241.506 66.3621 242.926C66.5925 244.347 68.9757 245.96 68.5941 243.733C68.2125 241.506 70.9629 234.332 68.5941 232.597C67.4748 231.646 66.5439 230.467 65.8554 229.129C65.1669 227.79 64.7347 226.32 64.5837 224.802" stroke="#263238" stroke-linecap="round" stroke-linejoin="round"/>
<path d="M62.8992 245.998C62.8992 245.998 53.928 234.793 55.2888 221.338L54 226.929C54 226.929 54.3528 240.377 62.8992 248.241V245.998Z" fill="#0093A5" stroke="#263238" stroke-linecap="round" stroke-linejoin="round"/>
<path d="M76.1904 146.52C76.1904 146.52 76.716 151.258 71.5176 154.153" stroke="#263238" stroke-linecap="round" stroke-linejoin="round"/>
<path d="M70.5024 159.13C70.5024 159.13 71.3448 166.572 73.8648 171.533" stroke="#263238" stroke-linecap="round" stroke-linejoin="round"/>
<path d="M102.888 244.854C102.888 244.854 103.017 238.142 104.911 236.575C105.753 235.884 105.278 227.966 105.53 227.536C105.782 227.105 112.644 220.048 113.04 216.576" stroke="white" stroke-linecap="round" stroke-linejoin="round"/>
<path d="M109.483 230.592C109.483 230.592 114.933 232.635 117.972 230.592" stroke="white" stroke-linecap="round" stroke-linejoin="round"/>
<path d="M132.782 237.381C132.782 237.381 120.405 240.821 113.731 237.381" stroke="white" stroke-linecap="round" stroke-linejoin="round"/>
<path d="M110.945 211.338C110.945 211.338 104.969 226.782 92.2246 236.574" stroke="white" stroke-linecap="round" stroke-linejoin="round"/>
<path d="M102.888 201.154C106.769 196.854 102.348 191.431 102.348 191.431C102.348 191.431 109.281 196.6 109.094 192.752C108.907 188.905 102.398 191.055 102.398 191.055C102.398 191.055 94.9678 191.101 95.7958 195.663C96.6238 200.225 102.398 192.023 102.398 192.023C102.398 192.023 102.067 198.797 96.847 200.878" stroke="white" stroke-linecap="round" stroke-linejoin="round"/>
<path d="M79.063 190.464C77.9974 191.547 79.063 196.708 79.063 196.708C79.063 196.708 74.4334 216.269 75.715 224.87C76.9966 233.472 76.5286 236.544 76.5286 236.544" stroke="white" stroke-linecap="round" stroke-linejoin="round"/>
<path d="M102.413 206.423C102.413 206.423 101.57 214.172 102.888 215.232C104.206 216.292 104.486 220.093 104.486 220.093" stroke="white" stroke-linecap="round" stroke-linejoin="round"/>
</svg>
